<svg width="111" height="78" viewBox="0 0 111 78" fill="none" xmlns="http://www.w3.org/2000/svg">
<path d="M17.0543 55.5427L19.216 63.6101C19.6073 65.0706 21.1064 65.9361 22.5669 65.5448L27.7829 64.1471C30.1474 63.5135 35.5435 61.3968 33.9222 55.3463C32.301 49.2957 26.5695 50.1606 24.2049 50.7942L18.9889 52.1918C17.5285 52.5831 16.663 54.0822 17.0543 55.5427ZM16.7527 43.8462L20.2996 42.8958C21.1342 42.6722 25.3529 41.1691 24.123 36.579C22.8931 31.9889 18.5253 32.9357 17.6907 33.1593L14.1439 34.1097C12.6834 34.501 11.8179 36.0001 12.2092 37.4606L13.4018 41.9116C13.7932 43.372 15.2923 44.2375 16.7527 43.8462ZM33.3784 42.7457C37.9302 44.4331 41.1534 48.1164 42.5324 53.2628C45.1226 62.9298 39.3806 70.4316 30.1309 72.91L18.1688 76.1152C15.7347 76.7675 13.2656 75.3419 12.6134 72.9078L1.89829 32.9185C1.24606 30.4843 2.67159 28.0152 5.10573 27.363L15.4682 24.5864C23.2574 22.4993 30.641 26.4095 32.7468 34.2683C33.4176 36.772 33.4253 39.3043 32.7834 41.6379C32.6866 42.1111 32.9561 42.5607 33.3784 42.7457ZM42.9521 29.223L44.6665 35.6213C45.0578 37.0818 46.5569 37.9473 48.0174 37.556L52.7466 36.2888C53.7898 36.0093 58.9312 34.3335 57.4404 28.7697C55.9497 23.206 50.6591 24.3254 49.6159 24.605L44.8867 25.8721C43.4263 26.2635 42.5608 27.7626 42.9521 29.223ZM64.4135 38.3805L64.293 38.4873C63.4921 39.6709 62.5148 40.7527 61.412 41.6445C60.9811 41.9836 60.9402 42.6654 61.3488 43.0777L73.24 54.3522C75.7427 56.7377 74.6949 60.8946 71.3567 61.7891C69.8962 62.1804 68.3003 61.7881 67.1998 60.7412L52.7872 47.0116C52.0073 46.3262 50.9541 46.012 49.9804 46.2729C48.7286 46.6084 48.0158 47.8429 48.3512 49.0947L51.9292 62.4477C52.5627 64.8123 51.1881 67.1932 48.8235 67.8268C46.459 68.4604 44.0594 67.0162 43.4258 64.6516L32.6734 24.5232C32.0399 22.1586 33.4654 19.6895 35.83 19.0559L47.4443 15.9439C55.7899 13.7077 63.8603 17.9557 66.1338 26.4404C67.2891 30.7523 66.6772 34.8668 64.4135 38.3805Z" fill="#0D57A0" fill-opacity="0.7"/>
<path d="M87.5081 4.66634C87.9616 3.12858 89.2134 1.92766 90.755 1.51459C94.2787 0.570414 97.4501 3.89073 96.4214 7.39231L90.4387 27.6428C90.1609 28.6614 90.4559 29.7625 91.2059 30.5058L106.512 45.0518C109.154 47.5699 108.068 52.0311 104.544 52.9753C103.002 53.3883 101.318 52.9742 100.156 51.8692L88.1286 40.4573C87.9031 40.203 87.4968 40.1545 87.2031 40.2332C86.9095 40.3119 86.6552 40.5374 86.5136 40.89L81.8035 56.7868C81.3501 58.3245 80.0982 59.5254 78.5566 59.9385C75.0329 60.8827 71.8615 57.5624 72.8903 54.0608L78.8729 33.8104C79.1507 32.7917 78.8557 31.6906 78.1058 30.9474L62.7994 16.4013C60.1577 13.8832 61.2441 9.42203 64.7678 8.47785C66.3094 8.06478 67.994 8.47889 69.1555 9.5839L81.183 20.9958C81.4819 21.2305 81.8149 21.2986 82.1085 21.2199C82.4022 21.1412 82.7299 20.8961 82.798 20.5631L87.5081 4.66634Z" fill="#1661A8" fill-opacity="0.6"/>
</svg>
