<svg width="116" height="116" viewBox="0 0 116 116" fill="none" xmlns="http://www.w3.org/2000/svg">
<rect width="116" height="116" rx="30" fill="url(#paint0_linear_1585_4352)"/>
<path d="M28.4003 62.492V68.524C28.4003 69.616 29.2843 70.5 30.3763 70.5H34.2763C36.0443 70.5 40.2043 70.032 40.2043 65.508C40.2043 60.984 36.0443 60.516 34.2763 60.516H30.3763C29.2843 60.516 28.4003 61.4 28.4003 62.492ZM30.3763 54.276H33.0283C33.6523 54.276 36.8763 54.016 36.8763 50.584C36.8763 47.152 33.6523 46.996 33.0283 46.996H30.3763C29.2843 46.996 28.4003 47.88 28.4003 48.972V52.3C28.4003 53.392 29.2843 54.276 30.3763 54.276ZM42.1803 56.616C45.0403 58.644 46.6003 61.816 46.6003 65.664C46.6003 72.892 41.1923 77.052 34.2763 77.052H25.3323C23.5123 77.052 22.0563 75.596 22.0563 73.776V43.876C22.0563 42.056 23.5123 40.6 25.3323 40.6H33.0803C38.9043 40.6 43.3243 44.708 43.3243 50.584C43.3243 52.456 42.8563 54.224 41.9723 55.732C41.8163 56.044 41.9203 56.408 42.1803 56.616ZM51.9068 48.972V53.756C51.9068 54.848 52.7908 55.732 53.8828 55.732H57.4188C58.1988 55.732 62.0988 55.524 62.0988 51.364C62.0988 47.204 58.1988 46.996 57.4188 46.996H53.8828C52.7908 46.996 51.9068 47.88 51.9068 48.972ZM65.1668 59.372L65.0628 59.424C64.2828 60.1 63.3988 60.672 62.4628 61.088C62.0988 61.244 61.9428 61.712 62.1508 62.076L68.3388 72.164C69.6388 74.296 68.1308 77 65.6348 77C64.5428 77 63.5028 76.428 62.9308 75.492L55.4428 63.22C55.0268 62.596 54.3508 62.18 53.6228 62.18C52.6868 62.18 51.9588 62.908 51.9588 63.844V73.828C51.9588 75.596 50.5548 77 48.7868 77C47.0188 77 45.6148 75.544 45.6148 73.776V43.772C45.6148 42.004 47.0708 40.548 48.8388 40.548H57.5228C63.7628 40.548 68.5988 45.02 68.5988 51.364C68.5988 54.588 67.4028 57.344 65.1668 59.372Z" fill="#FF7300" fill-opacity="0.7"/>
<g filter="url(#filter0_d_1585_4352)">
<path d="M85.0024 36.372C85.7504 35.148 87.1104 34.4 88.5384 34.4C91.8024 34.4 93.7744 38.004 92.0744 40.792L82.2144 56.908C81.7384 57.724 81.7384 58.744 82.2144 59.56L92.0744 75.676C93.7744 78.464 91.8024 82.068 88.5384 82.068C87.1104 82.068 85.7504 81.32 85.0024 80.096L77.2504 67.448C77.1144 67.176 76.7744 67.04 76.5024 67.04C76.2304 67.04 75.9584 67.176 75.7544 67.448L68.0024 80.096C67.2544 81.32 65.8944 82.068 64.4664 82.068C61.2024 82.068 59.2304 78.464 60.9304 75.676L70.7904 59.56C71.2664 58.744 71.2664 57.724 70.7904 56.908L60.9304 40.792C59.2304 38.004 61.2024 34.4 64.4664 34.4C65.8944 34.4 67.2544 35.148 68.0024 36.372L75.7544 49.02C75.9584 49.292 76.2304 49.428 76.5024 49.428C76.7744 49.428 77.1144 49.292 77.2504 49.02L85.0024 36.372Z" fill="#FF7300"/>
</g>
<defs>
<filter id="filter0_d_1585_4352" x="53.2305" y="32.3999" width="42.5439" height="55.668" filterUnits="userSpaceOnUse" color-interpolation-filters="sRGB">
<feFlood flood-opacity="0" result="BackgroundImageFix"/>
<feColorMatrix in="SourceAlpha" type="matrix" values="0 0 0 0 0 0 0 0 0 0 0 0 0 0 0 0 0 0 127 0" result="hardAlpha"/>
<feOffset dx="-2" dy="2"/>
<feGaussianBlur stdDeviation="2"/>
<feComposite in2="hardAlpha" operator="out"/>
<feColorMatrix type="matrix" values="0 0 0 0 0 0 0 0 0 0 0 0 0 0 0 0 0 0 0.25 0"/>
<feBlend mode="normal" in2="BackgroundImageFix" result="effect1_dropShadow_1585_4352"/>
<feBlend mode="normal" in="SourceGraphic" in2="effect1_dropShadow_1585_4352" result="shape"/>
</filter>
<linearGradient id="paint0_linear_1585_4352" x1="11.5" y1="6.5" x2="108.5" y2="105.5" gradientUnits="userSpaceOnUse">
<stop stop-color="#0F172A"/>
<stop offset="1" stop-color="#334F90"/>
</linearGradient>
</defs>
</svg>
