<svg width="116" height="116" viewBox="0 0 116 116" fill="none" xmlns="http://www.w3.org/2000/svg">
  <style>
    .pwa-light { display: none; }
    @media (prefers-color-scheme: light) {
      .pwa-dark  { display: none; }
      .pwa-light { display: block; }
    }
  </style>

  <!-- ─── DARK THEME (default) ─── -->
  <g class="pwa-dark">
    <rect width="116" height="116" rx="30" fill="url(#dark_bg)"/>
    <path d="M28.4003 62.492V68.524C28.4003 69.616 29.2843 70.5 30.3763 70.5H34.2763C36.0443 70.5 40.2043 70.032 40.2043 65.508C40.2043 60.984 36.0443 60.516 34.2763 60.516H30.3763C29.2843 60.516 28.4003 61.4 28.4003 62.492ZM30.3763 54.276H33.0283C33.6523 54.276 36.8763 54.016 36.8763 50.584C36.8763 47.152 33.6523 46.996 33.0283 46.996H30.3763C29.2843 46.996 28.4003 47.88 28.4003 48.972V52.3C28.4003 53.392 29.2843 54.276 30.3763 54.276ZM42.1803 56.616C45.0403 58.644 46.6003 61.816 46.6003 65.664C46.6003 72.892 41.1923 77.052 34.2763 77.052H25.3323C23.5123 77.052 22.0563 75.596 22.0563 73.776V43.876C22.0563 42.056 23.5123 40.6 25.3323 40.6H33.0803C38.9043 40.6 43.3243 44.708 43.3243 50.584C43.3243 52.456 42.8563 54.224 41.9723 55.732C41.8163 56.044 41.9203 56.408 42.1803 56.616ZM51.9068 48.972V53.756C51.9068 54.848 52.7908 55.732 53.8828 55.732H57.4188C58.1988 55.732 62.0988 55.524 62.0988 51.364C62.0988 47.204 58.1988 46.996 57.4188 46.996H53.8828C52.7908 46.996 51.9068 47.88 51.9068 48.972ZM65.1668 59.372L65.0628 59.424C64.2828 60.1 63.3988 60.672 62.4628 61.088C62.0988 61.244 61.9428 61.712 62.1508 62.076L68.3388 72.164C69.6388 74.296 68.1308 77 65.6348 77C64.5428 77 63.5028 76.428 62.9308 75.492L55.4428 63.22C55.0268 62.596 54.3508 62.18 53.6228 62.18C52.6868 62.18 51.9588 62.908 51.9588 63.844V73.828C51.9588 75.596 50.5548 77 48.7868 77C47.0188 77 45.6148 75.544 45.6148 73.776V43.772C45.6148 42.004 47.0708 40.548 48.8388 40.548H57.5228C63.7628 40.548 68.5988 45.02 68.5988 51.364C68.5988 54.588 67.4028 57.344 65.1668 59.372Z" fill="#FF7300" fill-opacity="0.7"/>
    <g filter="url(#dark_shadow)">
      <path d="M85.0024 36.372C85.7504 35.148 87.1104 34.4 88.5384 34.4C91.8024 34.4 93.7744 38.004 92.0744 40.792L82.2144 56.908C81.7384 57.724 81.7384 58.744 82.2144 59.56L92.0744 75.676C93.7744 78.464 91.8024 82.068 88.5384 82.068C87.1104 82.068 85.7504 81.32 85.0024 80.096L77.2504 67.448C77.1144 67.176 76.7744 67.04 76.5024 67.04C76.2304 67.04 75.9584 67.176 75.7544 67.448L68.0024 80.096C67.2544 81.32 65.8944 82.068 64.4664 82.068C61.2024 82.068 59.2304 78.464 60.9304 75.676L70.7904 59.56C71.2664 58.744 71.2664 57.724 70.7904 56.908L60.9304 40.792C59.2304 38.004 61.2024 34.4 64.4664 34.4C65.8944 34.4 67.2544 35.148 68.0024 36.372L75.7544 49.02C75.9584 49.292 76.2304 49.428 76.5024 49.428C76.7744 49.428 77.1144 49.292 77.2504 49.02L85.0024 36.372Z" fill="#FF7300"/>
    </g>
    <defs>
      <filter id="dark_shadow" x="53.2305" y="32.3999" width="42.5439" height="55.668" filterUnits="userSpaceOnUse" color-interpolation-filters="sRGB">
        <feFlood flood-opacity="0" result="BackgroundImageFix"/>
        <feColorMatrix in="SourceAlpha" type="matrix" values="0 0 0 0 0 0 0 0 0 0 0 0 0 0 0 0 0 0 127 0" result="hardAlpha"/>
        <feOffset dx="-2" dy="2"/>
        <feGaussianBlur stdDeviation="2"/>
        <feComposite in2="hardAlpha" operator="out"/>
        <feColorMatrix type="matrix" values="0 0 0 0 0 0 0 0 0 0 0 0 0 0 0 0 0 0 0.25 0"/>
        <feBlend mode="normal" in2="BackgroundImageFix" result="effect1_dropShadow"/>
        <feBlend mode="normal" in="SourceGraphic" in2="effect1_dropShadow" result="shape"/>
      </filter>
      <linearGradient id="dark_bg" x1="11.5" y1="6.5" x2="108.5" y2="105.5" gradientUnits="userSpaceOnUse">
        <stop stop-color="#0F172A"/>
        <stop offset="1" stop-color="#334F90"/>
      </linearGradient>
    </defs>
  </g>

  <!-- ─── LIGHT THEME ─── -->
  <g class="pwa-light">
    <rect width="116" height="116" rx="30" fill="url(#light_bg)"/>
    <path d="M29.344 62.0919V68.124C29.344 69.216 30.228 70.0999 31.32 70.0999H35.22C36.988 70.0999 41.148 69.632 41.148 65.108C41.148 60.584 36.988 60.1159 35.22 60.1159H31.32C30.228 60.1159 29.344 60.9999 29.344 62.0919ZM31.32 53.8759H33.972C34.596 53.8759 37.82 53.6159 37.82 50.1839C37.82 46.7519 34.596 46.5959 33.972 46.5959H31.32C30.228 46.5959 29.344 47.4799 29.344 48.5719V51.8999C29.344 52.9919 30.228 53.8759 31.32 53.8759ZM43.124 56.216C45.984 58.244 47.544 61.416 47.544 65.264C47.544 72.492 42.136 76.652 35.22 76.652H26.276C24.456 76.652 23 75.1959 23 73.3759V43.4759C23 41.6559 24.456 40.1999 26.276 40.1999H34.024C39.848 40.1999 44.268 44.3079 44.268 50.1839C44.268 52.0559 43.8 53.8239 42.916 55.3319C42.76 55.6439 42.864 56.008 43.124 56.216ZM52.8505 48.5719V53.3559C52.8505 54.4479 53.7345 55.3319 54.8265 55.3319H58.3625C59.1425 55.3319 63.0425 55.1239 63.0425 50.9639C63.0425 46.8039 59.1425 46.5959 58.3625 46.5959H54.8265C53.7345 46.5959 52.8505 47.4799 52.8505 48.5719ZM65.1105 58.972L65.0065 59.0239C64.2265 59.6999 63.3425 60.272 62.4065 61.088C62.0425 61.244 61.8865 61.3119 62.0945 61.6759L69.2825 71.764C70.5825 73.896 69.0745 76.5999 66.5785 76.5999C65.4865 76.5999 64.4465 76.0279 63.8745 75.0919L56.3865 62.82C55.9705 62.196 55.2945 61.7799 54.5665 61.7799C53.6305 61.7799 52.9025 62.508 52.9025 63.444V73.428C52.9025 75.196 51.4985 76.5999 49.7305 76.5999C47.9625 76.5999 46.5585 75.1439 46.5585 73.3759V43.3719C46.5585 41.6039 48.0145 40.1479 49.7825 40.1479H58.4665C64.7065 40.1479 69.5425 44.6199 69.5425 50.9639C69.5425 54.1879 68.3465 56.944 66.1105 58.972Z" fill="#1F5386" fill-opacity="0.9"/>
    <g filter="url(#light_shadow)">
      <path d="M85.946 35.972C86.694 34.748 88.054 34 89.482 34C92.746 34 94.718 37.604 93.018 40.392L83.158 56.508C82.682 57.324 82.682 58.344 83.158 59.16L93.018 75.276C94.718 78.064 92.746 81.668 89.482 81.668C88.054 81.668 86.694 80.92 85.946 79.696L78.194 67.048C78.058 66.776 77.718 66.64 77.446 66.64C77.174 66.64 76.902 66.776 76.698 67.448L68.946 79.696C68.198 80.92 66.838 82.068 65.41 82.068C62.146 82.068 60.174 78.064 61.874 75.276L71.734 59.16C72.21 58.344 72.21 57.324 71.734 56.508L61.874 40.392C60.174 37.604 62.146 34 65.41 34C66.838 34 68.198 34.748 68.946 35.972L76.698 48.62C76.902 48.892 77.174 49.028 77.446 49.028C77.718 49.028 78.058 48.892 78.194 48.62L85.946 35.972Z" fill="#0C5EAC"/>
    </g>
    <defs>
      <filter id="light_shadow" x="56.2502" y="31" width="40.3914" height="55.668" filterUnits="userSpaceOnUse" color-interpolation-filters="sRGB">
        <feFlood flood-opacity="0" result="BackgroundImageFix"/>
        <feColorMatrix in="SourceAlpha" type="matrix" values="0 0 0 0 0 0 0 0 0 0 0 0 0 0 0 0 0 0 127 0" result="hardAlpha"/>
        <feOffset dx="-1" dy="1"/>
        <feGaussianBlur stdDeviation="2"/>
        <feComposite in2="hardAlpha" operator="out"/>
        <feColorMatrix type="matrix" values="0 0 0 0 0.0588235 0 0 0 0 0.0901961 0 0 0 0 0.164706 0 0 0 1 0"/>
        <feBlend mode="normal" in2="BackgroundImageFix" result="effect1_dropShadow"/>
        <feBlend mode="normal" in="SourceGraphic" in2="effect1_dropShadow" result="shape"/>
      </filter>
      <linearGradient id="light_bg" x1="11" y1="7" x2="107" y2="108.5" gradientUnits="userSpaceOnUse">
        <stop stop-color="#FF9238"/>
        <stop offset="1" stop-color="#CB00A9"/>
      </linearGradient>
    </defs>
  </g>
</svg>